<svg width="82" height="93" viewBox="0 0 82 93" fill="none" xmlns="http://www.w3.org/2000/svg">
<g clip-path="url(#clip0_192_31)">
<mask id="mask0_192_31" style="mask-type:luminance" maskUnits="userSpaceOnUse" x="0" y="0" width="82" height="93">
<path d="M82 0H0V92.527H82V0Z" fill="white"/>
</mask>
<g mask="url(#mask0_192_31)">
<path d="M57.7646 76.178C59.7514 76.1264 64.0281 75.8272 65.7341 75.3845C67.4395 74.9419 69.3382 74.2122 70.5488 72.7799L70.576 72.7495C72.811 70.0662 72.2852 66.0847 72.2603 65.9141L72.1351 65.0165L71.2275 65.0559C71.0563 65.0653 67.0394 65.2758 64.8077 67.9597C63.2209 69.8678 63.0286 72.4292 63.0558 73.8121C61.3748 74.0958 59.6107 74.2061 58.1435 74.2271H42.446C48.7647 72.2309 54.4781 68.7381 59.2987 63.9234C67.2106 56.022 71.5666 45.5169 71.5666 34.343L71.5544 20.7144C71.5206 17.005 69.7321 13.601 66.7641 10.9113C70.2734 9.11918 73.0249 6.4661 73.0249 0.998204C73.0249 0.448667 72.5783 0.00292969 72.0281 0.00292969C66.5347 0.00292969 63.4198 3.3948 62.2762 4.95793C60.6163 4.30765 56.4681 3.01623 49.6971 3.01623C42.9259 3.01623 38.7745 4.30765 37.1177 4.95793C35.9774 3.39786 32.8624 0.00292969 27.369 0.00292969C26.8188 0.00292969 26.3724 0.448667 26.3724 0.998204C26.3724 6.51801 29.0748 9.20468 32.5414 10.9968C29.6281 13.6742 27.8765 17.0447 27.8428 20.7175L27.8245 33.6347L9.0364 74.2271H3.34737L2.44251 76.2178C2.44251 76.2178 56.3794 76.2178 57.7673 76.178H57.7646ZM66.3391 69.2323C67.4334 67.9198 69.2252 67.3884 70.3344 67.1779C70.3344 67.886 70.2552 68.8783 69.9283 69.8434C69.7321 70.4169 69.4512 70.9848 69.0418 71.4768C67.947 72.7894 66.1557 73.3207 65.0493 73.5312C65.0493 73.4825 65.0493 73.4276 65.0493 73.3755C65.0703 72.237 65.2936 70.4906 66.3391 69.2357V69.2323ZM13.2061 69.9349L16.4923 62.8302L29.6862 62.8363C45.4143 62.8302 58.2078 50.0506 58.2078 34.343H69.5703C69.5703 56.3461 51.7085 74.1845 29.677 74.1845H11.2374L12.7445 70.93L13.2061 69.9349ZM23.5906 47.4983L23.6731 47.3243L27.8642 38.2691L28.7721 36.3061L29.6801 34.343H42.8617C42.8617 41.6121 36.9648 47.5014 29.6893 47.5075L23.5906 47.5014V47.4983ZM29.6893 49.498C38.05 49.4919 44.8548 42.6929 44.8548 34.343H56.2176C56.2176 48.979 44.3413 60.8428 29.6893 60.8462L17.4186 60.8401L17.5011 60.6661L22.6735 49.4919L29.6954 49.498H29.6893ZM35.8765 6.6829C36.1363 7.14997 36.7264 7.32704 37.2032 7.08281C37.2399 7.06448 40.4436 5.46779 46.8724 5.08311C47.7528 5.03121 48.6944 5.00068 49.6971 5.00068C50.6998 5.00068 51.6413 5.03121 52.5217 5.08311C58.9502 5.46779 62.1543 7.06448 62.1876 7.07977C62.6646 7.32704 63.2519 7.14997 63.5145 6.6829C63.6154 6.50278 65.9263 2.53081 70.986 2.03622C70.6402 6.11499 68.2439 8.05673 65.052 9.52215C64.3523 9.84272 63.6154 10.1419 62.8513 10.435C62.356 10.6243 61.8485 10.8136 61.3349 11.0059C56.7894 12.6973 51.7758 14.5627 49.6909 19.9665C47.6122 14.6207 42.6386 12.798 38.1295 11.1464C37.5487 10.9327 36.974 10.722 36.4176 10.5083C35.6595 10.2183 34.9258 9.92212 34.2319 9.5985C31.0863 8.13917 28.7385 6.16691 28.4053 2.03317C33.4676 2.5247 35.7787 6.49967 35.8796 6.67675L35.8765 6.6829ZM29.836 20.7297C29.8666 17.3714 31.6212 14.2909 34.5101 11.8974C35.473 12.2973 36.4635 12.6606 37.4478 13.0209C43.2347 15.1396 48.7036 17.1424 48.7036 25.9472C48.7036 26.4968 49.1499 26.9425 49.7001 26.9425C50.2504 26.9425 50.6967 26.4968 50.6967 25.9472C50.6967 17.0966 56.2055 15.045 62.0352 12.8774C62.9549 12.5355 63.8813 12.1905 64.7861 11.8149C67.7331 14.2207 69.5338 17.3317 69.5615 20.7297L69.5859 32.3921H29.8084L29.836 20.7297ZM44.4452 21.5357C44.4452 18.8643 42.2686 16.6937 39.5969 16.6937C36.925 16.6937 34.7485 18.8674 34.7485 21.5357C34.7485 24.204 36.925 26.3777 39.5969 26.3777C42.2686 26.3777 44.4452 24.204 44.4452 21.5357ZM39.5969 24.3872C38.0225 24.3872 36.7416 23.108 36.7416 21.5357C36.7416 19.9634 38.0225 18.6842 39.5969 18.6842C41.1712 18.6842 42.4521 19.9634 42.4521 21.5357C42.4521 23.108 41.1712 24.3872 39.5969 24.3872ZM59.8002 26.3808C62.4751 26.3808 64.6487 24.2071 64.6487 21.5387C64.6487 18.8704 62.4724 16.6967 59.8002 16.6967C57.1285 16.6967 54.952 18.8704 54.952 21.5387C54.952 24.2071 57.1285 26.3808 59.8002 26.3808ZM59.8002 18.6842C61.3748 18.6842 62.6558 19.9634 62.6558 21.5357C62.6558 23.108 61.3748 24.3872 59.8002 24.3872C58.2261 24.3872 56.9451 23.108 56.9451 21.5357C56.9451 19.9634 58.2261 18.6842 59.8002 18.6842ZM81.3889 79.9211C81.2753 79.7959 78.5427 76.8467 75.0483 76.8467C72.2027 76.8467 69.864 78.8036 69.0324 79.5976L23.9024 79.5915L0.904859 79.5976L0 81.5883H5.71041L0.41269 92.527H10.7391C14.9302 92.527 18.8187 90.0908 20.6437 86.3232L22.9364 81.5883H45.4907C48.1472 81.6249 51.7024 81.9146 54.2061 82.8609C54.1602 84.2073 54.3131 86.879 55.9545 88.8508C58.1895 91.5347 62.2031 91.7452 62.3743 91.7546L63.2824 91.794L63.4076 90.8964C63.432 90.7285 63.9578 86.7443 61.7233 84.061C60.5858 82.6964 58.9901 81.9695 57.6726 81.5883H69.0357C69.8668 82.3817 72.2054 84.3386 75.0516 84.3386C78.5455 84.3386 81.2753 81.3894 81.3916 81.2642L82.0033 80.5927L81.3916 79.9211H81.3889ZM60.1886 85.3342C61.2828 86.6468 61.4756 88.5029 61.4817 89.6326C60.3719 89.4221 58.5807 88.8907 57.4864 87.5782C56.5999 86.5127 56.303 85.0899 56.2204 83.9907C56.2021 83.7341 56.1933 83.4931 56.1933 83.2826C56.9146 83.42 57.9203 83.6948 58.8372 84.2289C59.3325 84.5159 59.8035 84.876 60.1858 85.337L60.1886 85.3342ZM10.7391 90.5363H3.59193L7.92364 81.5883H20.7201L18.8462 85.4561C17.3513 88.5428 14.169 90.5363 10.7361 90.5363H10.7391ZM75.0483 82.3484C73.3368 82.3484 71.7838 81.3102 70.9123 80.5927C71.7838 79.8752 73.3368 78.8374 75.0483 78.8374C76.7603 78.8374 78.3133 79.8752 79.1843 80.5927C78.3133 81.3102 76.7603 82.3484 75.0483 82.3484Z" fill="#434551" fill-opacity="0.25"/>
<path d="M56.2176 32.3892V34.34C56.2176 48.976 44.3413 60.8401 29.6892 60.8429L17.4186 60.8368H15.2328L8.11621 76.2151H29.6739C40.8624 76.2151 51.3814 71.8614 59.2926 63.96C67.2045 56.0592 71.5694 45.5537 71.5694 34.3797V32.3892H56.2204H56.2176ZM29.6801 74.1845H11.2404L16.4953 62.8336L29.6892 62.8397C45.4173 62.8336 58.2106 50.0538 58.2106 34.3461H69.5737C69.5737 56.3489 51.7116 74.1878 29.6801 74.1878V74.1845Z" fill="#A5B66C"/>
</g>
</g>
<defs>
<clipPath id="clip0_192_31">
<rect width="82" height="92.527" fill="white"/>
</clipPath>
</defs>
</svg>
