<?xml version="1.0" encoding="UTF-8"?>
<svg id="finals" xmlns="http://www.w3.org/2000/svg" viewBox="0 0 501.74 300">
  <defs>
    <style>
      .cls-1 {
        fill: #ceb888;
      }

      .cls-1, .cls-2, .cls-3, .cls-4 {
        stroke-width: 0px;
      }

      .cls-2 {
        fill: #782f40;
      }

      .cls-3 {
        fill: #fff;
      }

      .cls-4 {
        fill: #231f20;
      }
    </style>
  </defs>
  <g>
    <path class="cls-2" d="M370.49,138.85V54.41h-21.52v79.13c-2.3.29-8.75.43-13.06.43-4.74,0-11.77-.14-13.34-.43V54.41h-27.98s6.74,4.74,6.74,11.91v85.3l1.29.43c.43.14,11.77,3.16,33.29,3.16,19.52,0,37.31-3.87,37.45-4.02l3.73-.72s-6.6-1.58-6.6-11.62ZM361.74,145.16s-6.6,1.86-25.97,1.86c-15.21,0-26.26-1.86-26.26-1.86V62.59h4.59v78.41s10.19,1.43,21.67,1.43c16.5,0,21.38-1.43,21.38-1.43V62.59h4.59v82.57Z"/>
    <g>
      <path class="cls-2" d="M169.61,51.03c-22.53,0-40.32,4.16-40.47,4.16l-3.59.86,3.01,2.15c3.3,2.44,4.59,4.88,4.74,8.75,0,0-.14,73.03,0,76.91,0,3.59-1.44,5.74-4.74,8.32l-4.16,3.01h39.17l-4.16-3.01s-4.59-3.87-4.45-8.32v-25.97h41.33c1.43.14,3.59,1.01,3.59,1.01l2.73,1.72v-26.69l-2.58,1.58s-1.43.86-3.44.86h-41.61v-23.53s8.47-1.15,13.06-1.15,16.79,1.29,22.53,3.44c6.6,2.58,12.05,7.46,12.05,7.46v-27.98l-1.43-.29c-.14,0-13.63-3.3-31.57-3.3ZM195.73,68.54s-3.73-1.87-9.9-2.87c-6.31-1.15-8.9-1.43-17.65-1.58-12.05-.29-21.52,1.44-21.52,1.44v39.03h47.78v5.02h-47.78v38.16h-5.17l.14-86.52s10.19-2.3,26.4-2.3c8.75,0,17.65.57,27.7,2.3v7.32Z"/>
      <path class="cls-1" d="M141.63,61.22l-.14,86.52h5.17v-38.16h47.78v-5.02h-47.78v-39.03s9.47-1.72,21.52-1.44c8.75.14,11.34.43,17.65,1.58,6.17,1,9.9,2.87,9.9,2.87v-7.32c-10.05-1.72-18.94-2.3-27.7-2.3-16.21,0-26.4,2.3-26.4,2.3Z"/>
    </g>
    <path class="cls-1" d="M357.15,141s-4.88,1.43-21.38,1.43c-11.48,0-21.67-1.43-21.67-1.43V62.59h-4.59v82.57s11.05,1.86,26.26,1.86c19.37,0,25.97-1.86,25.97-1.86V62.59h-4.59v78.41Z"/>
    <g>
      <path class="cls-2" d="M286.63,139.57v-23.25c0-4.88-3.3-6.31-3.3-6.31l-44.63-27.55v-9.76c2.73-.43,5.31-.86,16.65-.43,7.32.29,12.48,1.15,17.22,2.73,7.61,2.44,10.48,4.74,10.48,4.74l3.59,3.01-.14-28.27-1.72-.29c-.57-.14-16.5-3.16-33.43-3.16-21.38,0-36.88,3.87-37.6,4.02l-4.3,1,3.59,2.73c2.87,2.15,4.16,4.45,4.3,7.89l-.14,19.95c0,6.31,4.74,8.9,4.74,8.9l43.19,26.98v11.05c-2.58.43-6.17.86-17.36.43-7.46-.29-11.62-1.29-16.5-2.73-7.89-2.15-14.06-7.75-14.06-7.75v28.13l1.72.43c.72.14,15.78,3.16,32.86,3.16,21.38,0,37.6-3.87,38.31-4.02l4.45-1.01-3.73-2.73c-2.87-2.15-4.02-4.45-4.16-7.89ZM278.3,145.02s-9.76,2.15-24.97,2.15c-8.47,0-18.22-.57-27.7-2.15v-6.89s3.73,1.72,9.47,2.73c6.03,1,9.76,1.29,17.94,1.43,11.48.29,20.38-1.29,20.38-1.29v-18.8c0-4.16-4.16-6.46-4.16-6.46l-39.6-24.83s-4.02-2.44-4.02-7.03v-22.67s8.9-2.15,24.11-2.15c8.32,0,18.8.57,28.41,2.15v6.89s-3.59-1.72-9.33-2.73c-6.03-1.15-10.62-1.29-18.94-1.44-11.34-.29-19.52,1.29-19.52,1.29v17.08c0,3.87,3.87,6.03,3.87,6.03l40.32,24.97s3.73,2.01,3.73,6.46v25.25Z"/>
      <path class="cls-1" d="M274.57,113.31l-40.32-24.97s-3.87-2.15-3.87-6.03v-17.08s8.18-1.58,19.52-1.29c8.32.14,12.92.29,18.94,1.44,5.74,1,9.33,2.73,9.33,2.73v-6.89c-9.61-1.58-20.09-2.15-28.41-2.15-15.21,0-24.11,2.15-24.11,2.15v22.67c0,4.59,4.02,7.03,4.02,7.03l39.6,24.83s4.16,2.3,4.16,6.46v18.8s-8.9,1.58-20.38,1.29c-8.18-.14-11.91-.43-17.94-1.43-5.74-1.01-9.47-2.73-9.47-2.73v6.89c9.47,1.58,19.23,2.15,27.7,2.15,15.21,0,24.97-2.15,24.97-2.15v-25.25c0-4.45-3.73-6.46-3.73-6.46Z"/>
    </g>
  </g>
  <g>
    <g>
      <path class="cls-4" d="M96.91,218.31h-7.95v-41.37h18.48v6.76h-10.53v11.26h9.85v6.76h-9.85v16.58Z"/>
      <path class="cls-4" d="M112.96,218.31v-41.37h7.95v34.47h11.01v6.91h-18.96Z"/>
      <path class="cls-4" d="M164.64,197.57c0,3.28-.3,6.24-.91,8.87-.6,2.63-1.51,4.87-2.72,6.72-1.21,1.85-2.73,3.26-4.57,4.24s-4,1.47-6.47,1.47-4.66-.5-6.51-1.49c-1.85-.99-3.38-2.42-4.58-4.29-1.21-1.87-2.11-4.11-2.72-6.74-.6-2.62-.91-5.58-.91-8.86,0-4.64.56-8.54,1.67-11.69,1.11-3.15,2.76-5.53,4.95-7.13,2.19-1.6,4.89-2.41,8.09-2.41s6.09.86,8.25,2.58c2.16,1.72,3.77,4.17,4.83,7.34,1.06,3.18,1.58,6.97,1.58,11.36ZM143.5,197.57c0,3.17.24,5.82.74,7.94.49,2.12,1.22,3.72,2.18,4.78.96,1.07,2.15,1.6,3.57,1.6s2.63-.52,3.58-1.56c.95-1.04,1.67-2.61,2.15-4.73.48-2.11.72-4.79.72-8.04,0-4.85-.54-8.46-1.61-10.82-1.08-2.37-2.69-3.55-4.84-3.55-1.41,0-2.6.54-3.57,1.61s-1.69,2.68-2.18,4.81c-.49,2.13-.74,4.78-.74,7.95Z"/>
      <path class="cls-4" d="M180.46,176.94c3.06,0,5.59.44,7.61,1.33,2.02.89,3.52,2.22,4.51,3.99.99,1.77,1.49,4,1.49,6.68,0,1.7-.21,3.24-.62,4.63-.42,1.39-1.06,2.62-1.94,3.71-.88,1.09-2,2.03-3.35,2.84l8.52,18.2h-8.74l-6.76-16.22h-2.38v16.22h-7.95v-41.37h9.62ZM180.4,183.65h-1.61v12.17h1.78c1.77,0,3.12-.54,4.03-1.61.92-1.08,1.37-2.7,1.37-4.87,0-1.94-.46-3.38-1.37-4.3-.92-.92-2.32-1.39-4.2-1.39Z"/>
      <path class="cls-4" d="M200.52,218.31v-41.37h7.95v41.37h-7.95Z"/>
      <path class="cls-4" d="M242.09,196.86c0,4.62-.64,8.53-1.91,11.72-1.27,3.19-3.13,5.61-5.58,7.26-2.44,1.65-5.44,2.48-8.99,2.48h-9.74v-41.37h10.33c3.4,0,6.28.76,8.65,2.29,2.37,1.53,4.16,3.77,5.39,6.74,1.23,2.96,1.84,6.59,1.84,10.9ZM233.91,197.23c0-3.09-.29-5.63-.88-7.61-.58-1.98-1.46-3.44-2.62-4.39-1.16-.94-2.6-1.41-4.32-1.41h-2.26v27.54h1.73c2.87,0,4.98-1.16,6.33-3.48,1.35-2.32,2.02-5.87,2.02-10.64Z"/>
      <path class="cls-4" d="M266.6,218.31l-2.15-9.96h-9.2l-2.15,9.96h-8.52l10.02-41.37h10.27l10.19,41.37h-8.46ZM263.23,201.45l-2.24-10.95c-.15-.91-.3-1.79-.44-2.66-.14-.87-.27-1.7-.4-2.5-.12-.8-.23-1.55-.33-2.25-.06.66-.14,1.39-.25,2.18s-.25,1.62-.4,2.49c-.15.87-.32,1.75-.51,2.63l-2.21,11.07h6.76Z"/>
      <path class="cls-4" d="M309.11,206.2c0,2.49-.5,4.69-1.5,6.59-1,1.91-2.41,3.4-4.23,4.47-1.82,1.08-3.97,1.61-6.44,1.61-1.15,0-2.26-.07-3.34-.21s-2.13-.38-3.17-.71c-1.04-.33-2.08-.77-3.11-1.32v-8.12c1.51.98,3.07,1.73,4.7,2.24,1.62.51,3.12.76,4.5.76,1.02,0,1.86-.2,2.53-.59.67-.4,1.17-.93,1.5-1.61.33-.68.5-1.44.5-2.29,0-.91-.14-1.7-.42-2.39-.28-.69-.83-1.38-1.63-2.07-.8-.69-1.98-1.49-3.52-2.39-1.21-.72-2.3-1.45-3.27-2.21-.97-.75-1.8-1.59-2.49-2.5-.69-.91-1.21-1.98-1.57-3.18-.36-1.21-.54-2.63-.54-4.27-.02-2.34.44-4.39,1.37-6.14s2.28-3.12,4.05-4.09c1.76-.97,3.88-1.45,6.35-1.43,1.68,0,3.33.23,4.94.68s3.16,1.09,4.66,1.92l-2.18,7.02c-1.34-.81-2.6-1.41-3.79-1.8-1.19-.39-2.3-.58-3.34-.58-.91,0-1.67.17-2.28.52-.61.35-1.08.83-1.39,1.43-.31.6-.47,1.29-.47,2.07,0,.98.15,1.81.45,2.49.3.68.87,1.34,1.71,2,.84.65,2.05,1.43,3.64,2.33,1.72,1,3.15,2.06,4.3,3.18,1.15,1.12,2.02,2.38,2.6,3.76.58,1.39.88,3,.88,4.83Z"/>
      <path class="cls-4" d="M328.06,218.31h-7.84v-34.5h-7.7v-6.88h23.18v6.88h-7.64v34.5Z"/>
      <path class="cls-4" d="M357.73,218.31l-2.15-9.96h-9.2l-2.15,9.96h-8.52l10.02-41.37h10.27l10.19,41.37h-8.46ZM354.36,201.45l-2.24-10.95c-.15-.91-.3-1.79-.44-2.66-.14-.87-.27-1.7-.4-2.5-.12-.8-.23-1.55-.33-2.25-.06.66-.14,1.39-.25,2.18s-.25,1.62-.4,2.49c-.15.87-.32,1.75-.51,2.63l-2.21,11.07h6.76Z"/>
      <path class="cls-4" d="M381.68,218.31h-7.84v-34.5h-7.7v-6.88h23.18v6.88h-7.64v34.5Z"/>
      <path class="cls-4" d="M412.49,218.31h-18.59v-41.37h18.59v6.76h-10.64v9.74h9.9v6.79h-9.9v11.18h10.64v6.91Z"/>
    </g>
    <g>
      <path class="cls-4" d="M103.81,230.1v12.05c0,1.3-.27,2.46-.82,3.49-.55,1.03-1.38,1.84-2.48,2.44-1.11.6-2.5.9-4.18.9-2.39,0-4.22-.63-5.46-1.88-1.25-1.25-1.87-2.92-1.87-5v-12h3.15v11.69c0,1.56.36,2.71,1.08,3.43s1.8,1.09,3.22,1.09c.98,0,1.79-.17,2.41-.52.62-.35,1.08-.86,1.38-1.53s.45-1.5.45-2.46v-11.69h3.13Z"/>
      <path class="cls-4" d="M143.91,248.72h-3.88l-9.02-14.79h-.11c.03.51.06,1.05.09,1.61.03.56.05,1.14.08,1.74.03.59.05,1.2.06,1.81v9.63h-2.85v-18.62h3.86l9,14.68h.09c-.02-.45-.04-.96-.06-1.52s-.05-1.14-.07-1.74-.04-1.17-.06-1.73v-9.7h2.88v18.62Z"/>
      <path class="cls-4" d="M168.52,248.72v-18.62h3.15v18.62h-3.15Z"/>
      <path class="cls-4" d="M210.17,230.1l-6.48,18.62h-3.35l-6.48-18.62h3.21l3.88,11.61c.12.32.25.73.38,1.21s.27.98.39,1.48c.13.51.22.95.29,1.33.07-.38.16-.83.28-1.33.12-.5.25-1,.39-1.48.14-.48.27-.89.38-1.22l3.88-11.6h3.22Z"/>
      <path class="cls-4" d="M242.91,248.72h-10.57v-18.62h10.57v2.64h-7.42v4.97h6.95v2.62h-6.95v5.74h7.42v2.65Z"/>
      <path class="cls-4" d="M271.89,230.1c1.62,0,2.96.2,4.01.59s1.84.99,2.35,1.79c.51.8.77,1.81.77,3.04,0,.91-.17,1.69-.5,2.34s-.78,1.19-1.33,1.61c-.55.42-1.14.76-1.77,1.02l5.31,8.23h-3.54l-4.5-7.42h-2.9v7.42h-3.15v-18.62h5.25ZM271.69,232.72h-1.9v5.99h2.04c1.4,0,2.42-.26,3.05-.78s.95-1.29.95-2.3-.34-1.8-1.01-2.24c-.68-.44-1.72-.66-3.13-.66Z"/>
      <path class="cls-4" d="M313.87,243.65c0,1.1-.27,2.05-.81,2.85-.54.8-1.31,1.41-2.32,1.83-1.01.42-2.21.64-3.61.64-.68,0-1.33-.04-1.95-.11s-1.2-.19-1.75-.34c-.55-.15-1.05-.33-1.51-.55v-2.95c.77.34,1.63.65,2.56.92.93.27,1.88.41,2.85.41.77,0,1.41-.1,1.92-.31s.89-.49,1.13-.87c.25-.38.37-.82.37-1.33,0-.54-.15-1-.45-1.38-.3-.37-.74-.72-1.34-1.04s-1.33-.66-2.22-1.03c-.59-.24-1.17-.51-1.72-.82-.55-.31-1.04-.68-1.48-1.1-.43-.42-.78-.93-1.03-1.52s-.38-1.27-.38-2.06c0-1.06.25-1.97.76-2.73.5-.76,1.22-1.33,2.15-1.73.93-.4,2-.6,3.23-.6.98,0,1.91.1,2.77.31.86.21,1.71.5,2.55.87l-.99,2.52c-.77-.31-1.52-.57-2.23-.76s-1.44-.29-2.19-.29c-.63,0-1.16.1-1.6.29-.44.19-.77.46-1,.81-.23.35-.34.76-.34,1.24,0,.53.13.98.4,1.34.27.36.68.69,1.24,1s1.28.64,2.15,1.01c1.02.43,1.88.88,2.6,1.35.71.47,1.26,1.03,1.64,1.67s.57,1.47.57,2.45Z"/>
      <path class="cls-4" d="M337.18,248.72v-18.62h3.15v18.62h-3.15Z"/>
      <path class="cls-4" d="M371.47,248.72h-3.15v-15.96h-5.41v-2.66h13.97v2.66h-5.41v15.96Z"/>
      <path class="cls-4" d="M404.79,238.52l4.37-8.42h3.39l-6.19,11.39v7.23h-3.13v-7.12l-6.19-11.5h3.41l4.34,8.42Z"/>
    </g>
  </g>
  <g>
    <path class="cls-4" d="M370.73,138.85V54.41h-21.52v79.13c-2.3.29-8.75.43-13.06.43-4.74,0-11.77-.14-13.34-.43V54.41h-27.98s6.74,4.74,6.74,11.91v85.3l1.29.43c.43.14,11.77,3.16,33.29,3.16,19.52,0,37.31-3.87,37.45-4.02l3.73-.72s-6.6-1.58-6.6-11.62ZM361.98,145.16s-6.6,1.86-25.97,1.86c-15.21,0-26.26-1.86-26.26-1.86V62.59h4.59v78.41s10.19,1.43,21.67,1.43c16.5,0,21.38-1.43,21.38-1.43V62.59h4.59v82.57Z"/>
    <g>
      <path class="cls-4" d="M169.85,51.03c-22.53,0-40.32,4.16-40.47,4.16l-3.59.86,3.01,2.15c3.3,2.44,4.59,4.88,4.74,8.75,0,0-.14,73.03,0,76.91,0,3.59-1.44,5.74-4.74,8.32l-4.16,3.01h39.17l-4.16-3.01s-4.59-3.87-4.45-8.32v-25.97h41.33c1.43.14,3.59,1.01,3.59,1.01l2.73,1.72v-26.69l-2.58,1.58s-1.43.86-3.44.86h-41.61v-23.53s8.47-1.15,13.06-1.15,16.79,1.29,22.53,3.44c6.6,2.58,12.05,7.46,12.05,7.46v-27.98l-1.43-.29c-.14,0-13.63-3.3-31.57-3.3ZM195.97,68.54s-3.73-1.87-9.9-2.87c-6.31-1.15-8.9-1.43-17.65-1.58-12.05-.29-21.52,1.44-21.52,1.44v39.03h47.78v5.02h-47.78v38.16h-5.17l.14-86.52s10.19-2.3,26.4-2.3c8.75,0,17.65.57,27.7,2.3v7.32Z"/>
      <path class="cls-3" d="M141.87,61.22l-.14,86.52h5.17v-38.16h47.78v-5.02h-47.78v-39.03s9.47-1.72,21.52-1.44c8.75.14,11.34.43,17.65,1.58,6.17,1,9.9,2.87,9.9,2.87v-7.32c-10.05-1.72-18.94-2.3-27.7-2.3-16.21,0-26.4,2.3-26.4,2.3Z"/>
    </g>
    <path class="cls-3" d="M357.39,141s-4.88,1.43-21.38,1.43c-11.48,0-21.67-1.43-21.67-1.43V62.59h-4.59v82.57s11.05,1.86,26.26,1.86c19.37,0,25.97-1.86,25.97-1.86V62.59h-4.59v78.41Z"/>
    <g>
      <path class="cls-4" d="M286.86,139.57v-23.25c0-4.88-3.3-6.31-3.3-6.31l-44.63-27.55v-9.76c2.73-.43,5.31-.86,16.65-.43,7.32.29,12.48,1.15,17.22,2.73,7.61,2.44,10.48,4.74,10.48,4.74l3.59,3.01-.14-28.27-1.72-.29c-.57-.14-16.5-3.16-33.43-3.16-21.38,0-36.88,3.87-37.6,4.02l-4.3,1,3.59,2.73c2.87,2.15,4.16,4.45,4.3,7.89l-.14,19.95c0,6.31,4.74,8.9,4.74,8.9l43.19,26.98v11.05c-2.58.43-6.17.86-17.36.43-7.46-.29-11.62-1.29-16.5-2.73-7.89-2.15-14.06-7.75-14.06-7.75v28.13l1.72.43c.72.14,15.78,3.16,32.86,3.16,21.38,0,37.6-3.87,38.31-4.02l4.45-1.01-3.73-2.73c-2.87-2.15-4.02-4.45-4.16-7.89ZM278.54,145.02s-9.76,2.15-24.97,2.15c-8.47,0-18.22-.57-27.7-2.15v-6.89s3.73,1.72,9.47,2.73c6.03,1,9.76,1.29,17.94,1.43,11.48.29,20.38-1.29,20.38-1.29v-18.8c0-4.16-4.16-6.46-4.16-6.46l-39.6-24.83s-4.02-2.44-4.02-7.03v-22.67s8.9-2.15,24.11-2.15c8.32,0,18.8.57,28.41,2.15v6.89s-3.59-1.72-9.33-2.73c-6.03-1.15-10.62-1.29-18.94-1.44-11.34-.29-19.52,1.29-19.52,1.29v17.08c0,3.87,3.87,6.03,3.87,6.03l40.32,24.97s3.73,2.01,3.73,6.46v25.25Z"/>
      <path class="cls-3" d="M274.81,113.31l-40.32-24.97s-3.87-2.15-3.87-6.03v-17.08s8.18-1.58,19.52-1.29c8.32.14,12.92.29,18.94,1.44,5.74,1,9.33,2.73,9.33,2.73v-6.89c-9.61-1.58-20.09-2.15-28.41-2.15-15.21,0-24.11,2.15-24.11,2.15v22.67c0,4.59,4.02,7.03,4.02,7.03l39.6,24.83s4.16,2.3,4.16,6.46v18.8s-8.9,1.58-20.38,1.29c-8.18-.14-11.91-.43-17.94-1.43-5.74-1.01-9.47-2.73-9.47-2.73v6.89c9.47,1.58,19.23,2.15,27.7,2.15,15.21,0,24.97-2.15,24.97-2.15v-25.25c0-4.45-3.73-6.46-3.73-6.46Z"/>
    </g>
  </g>
  <g>
    <g>
      <path class="cls-4" d="M97.15,218.31h-7.95v-41.37h18.48v6.76h-10.53v11.26h9.85v6.76h-9.85v16.58Z"/>
      <path class="cls-4" d="M113.2,218.31v-41.37h7.95v34.47h11.01v6.91h-18.96Z"/>
      <path class="cls-4" d="M164.87,197.57c0,3.28-.3,6.24-.91,8.87-.6,2.63-1.51,4.87-2.72,6.72-1.21,1.85-2.73,3.26-4.57,4.24s-4,1.47-6.47,1.47-4.66-.5-6.51-1.49c-1.85-.99-3.38-2.42-4.58-4.29-1.21-1.87-2.11-4.11-2.72-6.74-.6-2.62-.91-5.58-.91-8.86,0-4.64.56-8.54,1.67-11.69,1.11-3.15,2.76-5.53,4.95-7.13,2.19-1.6,4.89-2.41,8.09-2.41s6.09.86,8.25,2.58c2.16,1.72,3.77,4.17,4.83,7.34,1.06,3.18,1.58,6.97,1.58,11.36ZM143.73,197.57c0,3.17.24,5.82.74,7.94.49,2.12,1.22,3.72,2.18,4.78.96,1.07,2.15,1.6,3.57,1.6s2.63-.52,3.58-1.56c.95-1.04,1.67-2.61,2.15-4.73.48-2.11.72-4.79.72-8.04,0-4.85-.54-8.46-1.61-10.82-1.08-2.37-2.69-3.55-4.84-3.55-1.41,0-2.6.54-3.57,1.61s-1.69,2.68-2.18,4.81c-.49,2.13-.74,4.78-.74,7.95Z"/>
      <path class="cls-4" d="M180.69,176.94c3.06,0,5.59.44,7.61,1.33,2.02.89,3.52,2.22,4.51,3.99.99,1.77,1.49,4,1.49,6.68,0,1.7-.21,3.24-.62,4.63-.42,1.39-1.06,2.62-1.94,3.71-.88,1.09-2,2.03-3.35,2.84l8.52,18.2h-8.74l-6.76-16.22h-2.38v16.22h-7.95v-41.37h9.62ZM180.64,183.65h-1.61v12.17h1.78c1.77,0,3.12-.54,4.03-1.61.92-1.08,1.37-2.7,1.37-4.87,0-1.94-.46-3.38-1.37-4.3-.92-.92-2.32-1.39-4.2-1.39Z"/>
      <path class="cls-4" d="M200.76,218.31v-41.37h7.95v41.37h-7.95Z"/>
      <path class="cls-4" d="M242.33,196.86c0,4.62-.64,8.53-1.91,11.72-1.27,3.19-3.13,5.61-5.58,7.26-2.44,1.65-5.44,2.48-8.99,2.48h-9.74v-41.37h10.33c3.4,0,6.28.76,8.65,2.29,2.37,1.53,4.16,3.77,5.39,6.74,1.23,2.96,1.84,6.59,1.84,10.9ZM234.15,197.23c0-3.09-.29-5.63-.88-7.61-.58-1.98-1.46-3.44-2.62-4.39-1.16-.94-2.6-1.41-4.32-1.41h-2.26v27.54h1.73c2.87,0,4.98-1.16,6.33-3.48,1.35-2.32,2.02-5.87,2.02-10.64Z"/>
      <path class="cls-4" d="M266.84,218.31l-2.15-9.96h-9.2l-2.15,9.96h-8.52l10.02-41.37h10.27l10.19,41.37h-8.46ZM263.47,201.45l-2.24-10.95c-.15-.91-.3-1.79-.44-2.66-.14-.87-.27-1.7-.4-2.5-.12-.8-.23-1.55-.33-2.25-.06.66-.14,1.39-.25,2.18s-.25,1.62-.4,2.49c-.15.87-.32,1.75-.51,2.63l-2.21,11.07h6.76Z"/>
      <path class="cls-4" d="M309.35,206.2c0,2.49-.5,4.69-1.5,6.59-1,1.91-2.41,3.4-4.23,4.47-1.82,1.08-3.97,1.61-6.44,1.61-1.15,0-2.26-.07-3.34-.21s-2.13-.38-3.17-.71c-1.04-.33-2.08-.77-3.11-1.32v-8.12c1.51.98,3.07,1.73,4.7,2.24,1.62.51,3.12.76,4.5.76,1.02,0,1.86-.2,2.53-.59.67-.4,1.17-.93,1.5-1.61.33-.68.5-1.44.5-2.29,0-.91-.14-1.7-.42-2.39-.28-.69-.83-1.38-1.63-2.07-.8-.69-1.98-1.49-3.52-2.39-1.21-.72-2.3-1.45-3.27-2.21-.97-.75-1.8-1.59-2.49-2.5-.69-.91-1.21-1.98-1.57-3.18-.36-1.21-.54-2.63-.54-4.27-.02-2.34.44-4.39,1.37-6.14s2.28-3.12,4.05-4.09c1.76-.97,3.88-1.45,6.35-1.43,1.68,0,3.33.23,4.94.68s3.16,1.09,4.66,1.92l-2.18,7.02c-1.34-.81-2.6-1.41-3.79-1.8-1.19-.39-2.3-.58-3.34-.58-.91,0-1.67.17-2.28.52-.61.35-1.08.83-1.39,1.43-.31.6-.47,1.29-.47,2.07,0,.98.15,1.81.45,2.49.3.68.87,1.34,1.71,2,.84.65,2.05,1.43,3.64,2.33,1.72,1,3.15,2.06,4.3,3.18,1.15,1.12,2.02,2.38,2.6,3.76.58,1.39.88,3,.88,4.83Z"/>
      <path class="cls-4" d="M328.3,218.31h-7.84v-34.5h-7.7v-6.88h23.18v6.88h-7.64v34.5Z"/>
      <path class="cls-4" d="M357.97,218.31l-2.15-9.96h-9.2l-2.15,9.96h-8.52l10.02-41.37h10.27l10.19,41.37h-8.46ZM354.6,201.45l-2.24-10.95c-.15-.91-.3-1.79-.44-2.66-.14-.87-.27-1.7-.4-2.5-.12-.8-.23-1.55-.33-2.25-.06.66-.14,1.39-.25,2.18s-.25,1.62-.4,2.49c-.15.87-.32,1.75-.51,2.63l-2.21,11.07h6.76Z"/>
      <path class="cls-4" d="M381.91,218.31h-7.84v-34.5h-7.7v-6.88h23.18v6.88h-7.64v34.5Z"/>
      <path class="cls-4" d="M412.73,218.31h-18.59v-41.37h18.59v6.76h-10.64v9.74h9.9v6.79h-9.9v11.18h10.64v6.91Z"/>
    </g>
    <g>
      <path class="cls-4" d="M104.05,230.1v12.05c0,1.3-.27,2.46-.82,3.49-.55,1.03-1.38,1.84-2.48,2.44-1.11.6-2.5.9-4.18.9-2.39,0-4.22-.63-5.46-1.88-1.25-1.25-1.87-2.92-1.87-5v-12h3.15v11.69c0,1.56.36,2.71,1.08,3.43s1.8,1.09,3.22,1.09c.98,0,1.79-.17,2.41-.52.62-.35,1.08-.86,1.38-1.53s.45-1.5.45-2.46v-11.69h3.13Z"/>
      <path class="cls-4" d="M144.15,248.72h-3.88l-9.02-14.79h-.11c.03.51.06,1.05.09,1.61.03.56.05,1.14.08,1.74.03.59.05,1.2.06,1.81v9.63h-2.85v-18.62h3.86l9,14.68h.09c-.02-.45-.04-.96-.06-1.52s-.05-1.14-.07-1.74-.04-1.17-.06-1.73v-9.7h2.88v18.62Z"/>
      <path class="cls-4" d="M168.76,248.72v-18.62h3.15v18.62h-3.15Z"/>
      <path class="cls-4" d="M210.41,230.1l-6.48,18.62h-3.35l-6.48-18.62h3.21l3.88,11.61c.12.32.25.73.38,1.21s.27.98.39,1.48c.13.51.22.95.29,1.33.07-.38.16-.83.28-1.33.12-.5.25-1,.39-1.48.14-.48.27-.89.38-1.22l3.88-11.6h3.22Z"/>
      <path class="cls-4" d="M243.15,248.72h-10.57v-18.62h10.57v2.64h-7.42v4.97h6.95v2.62h-6.95v5.74h7.42v2.65Z"/>
      <path class="cls-4" d="M272.13,230.1c1.62,0,2.96.2,4.01.59s1.84.99,2.35,1.79c.51.8.77,1.81.77,3.04,0,.91-.17,1.69-.5,2.34s-.78,1.19-1.33,1.61c-.55.42-1.14.76-1.77,1.02l5.31,8.23h-3.54l-4.5-7.42h-2.9v7.42h-3.15v-18.62h5.25ZM271.93,232.72h-1.9v5.99h2.04c1.4,0,2.42-.26,3.05-.78s.95-1.29.95-2.3-.34-1.8-1.01-2.24c-.68-.44-1.72-.66-3.13-.66Z"/>
      <path class="cls-4" d="M314.11,243.65c0,1.1-.27,2.05-.81,2.85-.54.8-1.31,1.41-2.32,1.83-1.01.42-2.21.64-3.61.64-.68,0-1.33-.04-1.95-.11s-1.2-.19-1.75-.34c-.55-.15-1.05-.33-1.51-.55v-2.95c.77.34,1.63.65,2.56.92.93.27,1.88.41,2.85.41.77,0,1.41-.1,1.92-.31s.89-.49,1.13-.87c.25-.38.37-.82.37-1.33,0-.54-.15-1-.45-1.38-.3-.37-.74-.72-1.34-1.04s-1.33-.66-2.22-1.03c-.59-.24-1.17-.51-1.72-.82-.55-.31-1.04-.68-1.48-1.1-.43-.42-.78-.93-1.03-1.52s-.38-1.27-.38-2.06c0-1.06.25-1.97.76-2.73.5-.76,1.22-1.33,2.15-1.73.93-.4,2-.6,3.23-.6.98,0,1.91.1,2.77.31.86.21,1.71.5,2.55.87l-.99,2.52c-.77-.31-1.52-.57-2.23-.76s-1.44-.29-2.19-.29c-.63,0-1.16.1-1.6.29-.44.19-.77.46-1,.81-.23.35-.34.76-.34,1.24,0,.53.13.98.4,1.34.27.36.68.69,1.24,1s1.28.64,2.15,1.01c1.02.43,1.88.88,2.6,1.35.71.47,1.26,1.03,1.64,1.67s.57,1.47.57,2.45Z"/>
      <path class="cls-4" d="M337.42,248.72v-18.62h3.15v18.62h-3.15Z"/>
      <path class="cls-4" d="M371.71,248.72h-3.15v-15.96h-5.41v-2.66h13.97v2.66h-5.41v15.96Z"/>
      <path class="cls-4" d="M405.02,238.52l4.37-8.42h3.39l-6.19,11.39v7.23h-3.13v-7.12l-6.19-11.5h3.41l4.34,8.42Z"/>
    </g>
  </g>
</svg>